<?xml version="1.0" encoding="utf-8"?>
<!-- Generator: Adobe Illustrator 24.0.3, SVG Export Plug-In . SVG Version: 6.00 Build 0)  -->
<svg version="1.1" id="Layer_1" xmlns="http://www.w3.org/2000/svg" xmlns:xlink="http://www.w3.org/1999/xlink" x="0px" y="0px"
	 viewBox="0 0 24 24" style="enable-background:new 0 0 24 24;" xml:space="preserve">
<style type="text/css">
	.st0{fill:#22AC60;}
</style>
<path class="st0" d="M12,2c5.5,0,10,4.5,10,10s-4.5,10-10,10S2,17.5,2,12S6.5,2,12,2z M12,0C5.4,0,0,5.4,0,12s5.4,12,12,12
	s12-5.4,12-12S18.6,0,12,0z M17.4,10.5h-1c-0.5,0-0.6-0.4-0.6-0.9c0-2-1.6-3.7-3.7-3.7H9.7C7.6,6,6,7.6,6,9.7v4.7
	c0,2,1.6,3.7,3.7,3.7h4.7c2,0,3.7-1.6,3.7-3.7v-3.2C18,10.8,17.7,10.5,17.4,10.5z M9.7,9h2.1c0.4,0,0.7,0.3,0.7,0.8
	s-0.3,0.8-0.7,0.8H9.7C9.3,10.5,9,10.2,9,9.8S9.3,9,9.7,9z M14.3,15H9.7C9.3,15,9,14.7,9,14.2c0-0.4,0.3-0.8,0.7-0.8h4.5
	c0.4,0,0.7,0.3,0.7,0.8S14.7,15,14.3,15z"/>
</svg>
