<?xml version="1.0" encoding="utf-8"?>
<!-- Generator: Adobe Illustrator 24.0.3, SVG Export Plug-In . SVG Version: 6.00 Build 0)  -->
<svg version="1.1" id="Layer_1" xmlns="http://www.w3.org/2000/svg" xmlns:xlink="http://www.w3.org/1999/xlink" x="0px" y="0px"
	 viewBox="0 0 1366 768" style="enable-background:new 0 0 1366 768;" xml:space="preserve">
<style type="text/css">
	.st0{fill:#474747;}
	.st1{fill:#838383;}
</style>
<path d="M353.5,25.1c0-4.9,0-9.7,0-14.6c219.7,0,439.4,0,659.1,0c-0.6,7.5-1.2,15-1.9,22.6c-2.7,29.3-5.5,58.7-8.2,88
	c-2.7,29.3-5.1,58.7-7.8,88.1c-3.6,40-7.5,80-11.1,120c-3.2,34.9-6.1,69.9-9.3,104.8c-3.6,40-7.5,80-11.1,120
	c-3.7,40.3-7.2,80.5-10.8,120.8c-0.3,3.8-1,7.6-1.6,11.5c-3.4,1-6.2,1.8-9,2.6c-19.3,5.2-38.6,10.2-57.8,15.4
	c-65.3,17.7-130.6,35.4-195.9,53.3c-4.2,1.1-8,1-12.1-0.2c-83.8-22.9-167.7-45.7-251.5-68.5c-3-0.8-6-1.8-9.2-2.7
	c-0.5-3.2-1.1-6.1-1.3-9c-2.2-23.8-4.3-47.5-6.4-71.3c-1.7-18.4-3.3-36.9-5-55.3c-2.2-24.5-4.5-49-6.7-73.5
	c-1.7-18.4-3.3-36.9-5-55.3c-2.2-24.3-4.5-48.5-6.7-72.7c-2.2-23.8-4.2-47.5-6.4-71.3c-2.2-24-4.5-48-6.7-72c-2.2-24-4.2-48-6.4-72
	c-2.8-31-5.6-62.1-8.5-93.1C355.7,35.4,354.4,30.2,353.5,25.1z M682.3,618.7c0,26.1,0,52.1,0,78.2c0,2.8,0.4,5.5,0.7,8.7
	c2.2-0.3,3.4-0.4,4.5-0.7c27.1-7.9,54.2-15.7,81.3-23.7c29.4-8.7,58.8-17.4,88.2-26.2c11.7-3.5,23.3-7.1,35-10.4
	c5.3-1.5,8.2-4,8.3-10.1c0.1-6.5,1.4-13,2.1-19.6c1.2-11.8,2.3-23.7,3.5-35.6c1.2-12.6,2.3-25.2,3.6-37.7
	c1.2-11.8,2.5-23.7,3.7-35.5c1.2-11.8,2.5-23.7,3.8-35.5c1.6-14.2,3.5-28.5,5-42.7c1.3-11.6,2.3-23.2,3.4-34.8
	c1.3-12.8,2.6-25.6,3.9-38.4c1.2-12.1,2.3-24.2,3.5-36.3c1.2-12.6,2.6-25.1,3.8-37.7c1.2-12.3,2.3-24.7,3.5-37
	c1.2-12.1,2.6-24.2,3.7-36.3c1.2-12.3,2.1-24.7,3.3-37c1.7-16.9,3.7-33.8,5.4-50.7c1.7-17.4,3.1-34.9,4.8-52.3c1-10,1.2-10.1-9-10.1
	c-85.2,0-170.4,0-255.6,0c-10.3,0-10.3,0-10.3,10.8c0,27.5,0,55-0.1,82.6c-3.2,0.1-6.3,0.2-9.5,0.2c-58.9,0-117.8,0-176.7,0
	c-3.1,0-6.1,0.2-10,0.4c3.4,31.5,5.7,62.2,9.6,93.2c61.7,0,122.4,0,183.1,0c0.1,0.4,0.1,0.8,0.2,1.2
	c-59.1,22.8-118.3,45.7-177.9,68.7c3.1,31.4,5.3,62.3,8.9,93.8c4,0,7.1,0,10.2,0c50.9,0,101.7,0,152.6,0c3.2,0,6.3,0.1,9.5,0.2
	c0,35.7,0.1,71.4,0,107.2c0,2.8-1.1,5.6-1.7,8.4c-22.5-7.1-45-14.2-67.5-21.2c-3.3-1-4.5-3.2-5-6.4c-1-6.7-2.1-13.5-3.2-20.2
	c-1.2-6.9-2.4-13.8-3.6-20.4c-10.8-1.6-81.5-1.1-87,0.7c3.5,38.1,7,76.3,10.6,114.7c3.2,1.1,6,2.1,8.7,3
	c38.5,11.5,77,22.9,115.5,34.3C660,611.8,671.1,615.3,682.3,618.7z"/>
<path class="st0" d="M682.3,618.7c16.3-4.8,32.7-9.6,49-14.5c34.1-10.1,68.1-20.3,102.2-30.4c7.6-2.3,7.5-2.3,8.2-10.4
	c2.2-24.2,4.5-48.5,6.7-72.7c2.2-24.3,4.2-48.5,6.4-72.8c2.2-24,4.4-48,6.6-72c0.9-9.9,1.6-19.8,2.5-30.7c-3.8-0.3-6.8-0.7-9.9-0.7
	c-52.9,0-105.7,0-158.6,0c-2.7,0-5.3,0-9.2,0c1.4-1.3,1.9-2,2.5-2.3c31.7-11.8,63.5-23.5,95.2-35.3c26.7-9.9,53.3-20.1,80.1-29.9
	c4.7-1.7,7-4.1,7.4-9.3c0.9-12.9,2.4-25.7,3.5-38.5c1.3-14.3,2.5-28.6,3.7-42.9c0.1-1.4,0-2.8,0-5c-3.3-0.1-6.4-0.4-9.4-0.4
	c-58.9,0-117.9,0-176.8,0c-3.4,0-6.8-0.1-10.2-0.2c0-27.5,0-55,0.1-82.6c0-10.7,0-10.8,10.3-10.8c85.2,0,170.4,0,255.6,0
	c10.2,0,10,0,9,10.1c-1.7,17.4-3,34.9-4.8,52.3c-1.7,16.9-3.7,33.8-5.4,50.7c-1.2,12.3-2.2,24.7-3.3,37c-1.2,12.1-2.5,24.2-3.7,36.3
	c-1.2,12.3-2.3,24.7-3.5,37c-1.2,12.6-2.6,25.1-3.8,37.7c-1.2,12.1-2.3,24.2-3.5,36.3c-1.3,12.8-2.6,25.6-3.9,38.4
	c-1.2,11.6-2.2,23.2-3.4,34.8c-1.6,14.3-3.4,28.5-5,42.7c-1.3,11.8-2.5,23.7-3.8,35.5c-1.2,11.8-2.5,23.7-3.7,35.5
	c-1.2,12.6-2.4,25.2-3.6,37.7c-1.1,11.9-2.3,23.7-3.5,35.6c-0.7,6.5-2,13-2.1,19.6c-0.1,6.1-3,8.6-8.3,10.1
	c-11.7,3.3-23.3,7-35,10.4c-29.4,8.7-58.8,17.5-88.2,26.2c-27.1,8-54.2,15.8-81.3,23.7c-1.1,0.3-2.3,0.4-4.5,0.7
	c-0.3-3.2-0.7-5.9-0.7-8.7C682.2,670.8,682.3,644.7,682.3,618.7z"/>
<path class="st1" d="M682.2,408.4c27.4,0,54.9,0,82.7,0c0,3.1,0.2,5.5,0,7.8c-1.7,20.4-3.5,40.7-5.2,61.1
	c-0.6,6.5-1.2,13.1-1.6,19.6c-0.2,3.4-1.8,5.3-5,6.2c-23,7-46.1,14.1-69.1,21c-1,0.3-2.3-0.2-3.5-0.3c0.6-2.8,1.7-5.6,1.7-8.4
	C682.3,479.8,682.2,444.1,682.2,408.4z"/>
</svg>
