<?xml version="1.0" encoding="utf-8"?>
<!-- Generator: Adobe Illustrator 24.0.3, SVG Export Plug-In . SVG Version: 6.00 Build 0)  -->
<svg version="1.1" id="Layer_1" xmlns="http://www.w3.org/2000/svg" xmlns:xlink="http://www.w3.org/1999/xlink" x="0px" y="0px"
	 viewBox="0 0 1366 768" style="enable-background:new 0 0 1366 768;" xml:space="preserve">
<style type="text/css">
	.st0{fill:#202020;}
	.st1{fill:#404040;}
	.st2{fill:#6C6C6C;}
	.st3{fill:#757575;}
	.st4{fill:#787878;}
	.st5{fill:#B5B5B5;}
	.st6{fill:#C0C0C0;}
	.st7{fill:#656565;}
	.st8{fill:#B2B2B2;}
	.st9{fill:#797979;}
	.st10{fill:#C4C4C4;}
	.st11{fill:#727272;}
</style>
<path class="st0" d="M686,758.5c-2.7,0-5.3,0-8,0c-2.4-1.1-4.7-2.4-7.2-3.1c-59.9-16.7-119.9-33.3-179.9-49.9
	c-24.2-6.7-48.4-13.4-72.7-20c-3.4-0.9-6-2-6.4-6.4c-2.8-33.5-5.9-66.9-8.9-100.4c-3.1-35-6.2-69.9-9.4-104.9
	c-3.2-35.5-6.4-70.9-9.6-106.4c-3.2-35.3-6.3-70.6-9.4-105.9c-3.5-39.1-7.1-78.2-10.6-117.3c-3.5-38.9-6.8-77.9-10.3-116.8
	c-0.2-2.1-1.2-4-1.8-6.1c0-3.7,0-7.3,0-11c220.7,0,441.3,0,662,0c0,3.7,0,7.3,0,11c-0.6,2-1.6,4-1.8,6c-3.1,34.1-6.1,68.2-9.1,102.4
	c-3.8,42.6-7.6,85.1-11.4,127.7c-4.2,46.5-8.4,93.1-12.6,139.6c-3.8,42.9-7.5,85.8-11.4,128.7c-4.5,50.5-9.2,101-13.6,151.6
	c-0.4,4.8-2.3,6.9-6.8,8.2c-85.5,23.5-170.9,47.2-256.4,70.8C689.3,757,687.7,757.8,686,758.5z M548.9,218.9
	c-1.3,8.8-2.6,17.5-3.9,26.3c-1.3,8-2.6,16-3.9,24c-1.4,8.3-2.8,16.6-4.2,24.9c-0.3,3.3-0.6,6.7-0.8,10c-1.3,8-2.7,16-4,24
	c-0.7,3.7-1.5,7.3-2.2,11c-1.6,9-3.1,18-4.7,27c-1.1,7-2.3,14-3.3,21c-1.3,9.6-2.5,19.3-3.8,28.9c-0.7,4.3-1.3,8.6-2,13
	c-2,12.6-4.1,25.3-6.1,37.9c-1.8,11.8-3,23.8-5.5,35.4c-1.1,5.3,0.2,7.6,4.6,10.1c51.1,28.4,102.1,57.1,153.2,85.6
	c5.2,2.9,11.2,4.4,16.8,6.5c3.6,1.3,4.1,4.1,4.1,7.5c-0.1,27.2-0.1,54.5-0.1,81.7c0,1.9,0.6,3.8,1,5.7c1.5,0.1,3.2,0.6,4.6,0.2
	c4.7-1.4,9.3-3.3,14-4.6c31.3-8.7,62.7-17.4,94.1-26c20.8-5.7,41.5-11.4,62.3-17.1c12.1-3.3,24.1-6.9,36.2-9.9
	c5.2-1.3,6.7-4.4,6.9-9.2c0.2-5.5,0.6-10.9,1.1-16.3c1.2-12.7,2.6-25.3,3.8-38c1.1-12.5,2-25.1,3.1-37.6c1.2-14,2.6-28,3.9-42
	c1.1-12,2.1-24,3.1-36.1c1.3-14.5,2.6-29,3.9-43.5c0.7-8.2,1.4-16.5,2.2-24.7c1.3-13.7,2.6-27.3,3.8-41c0.8-8.6,1.4-17.1,2.1-25.7
	c1.3-14.5,2.6-29,3.9-43.5c0.7-8.2,1.4-16.5,2.2-24.7c1.3-13.7,2.6-27.3,3.8-41c1.1-12.5,2-25,3.1-37.6c1.2-14.3,2.6-28.6,3.9-43
	c0.8-8.7,1.3-17.5,2.2-26.2c1.2-13,2.8-26,3.8-39c0.5-6.8-0.1-7-6.9-7c-84.8,0-169.6,0-254.4,0c-6.9,0-7,0-7,6.9
	c0,33.8,0,67.6,0,101.3c0,3.5-0.2,6-4.5,6.8c-2,0.4-3.6,2.6-5.3,4c-8.5,16-17.1,32-26,48.8c-1.4-2.5-2.3-3.9-3-5.4
	c-19.6-36.4-39.1-72.8-58.8-109.2c-5-9.3-12.7-10.4-20.1-3.1c-0.8,1.2-2,2.3-2.2,3.6c-1.1,6.1-1.9,12.2-2.8,18.4
	c-0.4,2.8-0.9,5.6-1.2,8.4c-1.3,9.5-2.6,19-3.9,28.5c-0.7,4.3-1.3,8.6-2,13C552.3,198.4,550.6,208.7,548.9,218.9z"/>
<path class="st1" d="M683.9,604.8c15.4-2.3,27.4-11.8,40.4-19c44-24.1,87.6-48.7,131.5-72.8c4.9-2.7,6.3-5.5,5.4-11.1
	c-9.1-55-17.9-110-26.8-165c-5.8-36-11.6-71.9-17.4-107.9c-0.4-2.5-0.8-4.9-1.4-7.4c-2.3-9.1-11.4-12-18.6-6c-1.7,1.4-3.1,3-4.7,4.5
	c-16.4,16.4-32.7,32.7-49.1,49.1c-4.4,4.4-4.7,4.4-7.7-1.1c-12.6-23.8-25.1-47.7-37.6-71.6c-1.5-2.9-3.1-5.9-4.9-8.7
	c-4.7-7.1-8.4-8.1-15.9-4.2c-1,0.5-2.1,1.1-3.1,1.6c1.8-1.4,3.4-3.6,5.3-4c4.3-0.8,4.5-3.4,4.5-6.8c-0.1-33.8-0.1-67.6,0-101.3
	c0-6.9,0-6.9,7-6.9c84.8,0,169.6,0,254.4,0c6.8,0,7.4,0.2,6.9,7c-1,13-2.5,26-3.8,39c-0.8,8.7-1.4,17.5-2.2,26.2
	c-1.3,14.3-2.6,28.6-3.9,43c-1.1,12.5-2,25-3.1,37.6c-1.2,13.7-2.6,27.3-3.8,41c-0.8,8.2-1.4,16.5-2.2,24.7
	c-1.3,14.5-2.6,29-3.9,43.5c-0.7,8.6-1.4,17.1-2.1,25.7c-1.2,13.7-2.6,27.3-3.8,41c-0.8,8.2-1.4,16.5-2.2,24.7
	c-1.3,14.5-2.6,29-3.9,43.5c-1.1,12-2,24-3.1,36.1c-1.3,14-2.6,28-3.9,42c-1.1,12.5-2,25.1-3.1,37.6c-1.2,12.7-2.6,25.3-3.8,38
	c-0.5,5.4-0.9,10.9-1.1,16.3c-0.2,4.8-1.7,7.9-6.9,9.2c-12.1,3-24.1,6.6-36.2,9.9c-20.8,5.7-41.5,11.4-62.3,17.1
	c-31.4,8.6-62.7,17.3-94.1,26c-4.7,1.3-9.3,3.2-14,4.6c-1.4,0.4-3-0.1-4.6-0.2c0-1.3,0-2.7,0-4C684,665.3,684,635,683.9,604.8z"/>
<path class="st2" d="M683.9,604.8c0.1,30.2,0.1,60.5,0.2,90.7c0,1.3,0,2.7,0,4c-0.3-1.9-1-3.8-1-5.7c0-27.2,0-54.5,0.1-81.7
	c0-3.4-0.5-6.2-4.1-7.5C680.7,604.6,682.3,604.7,683.9,604.8z"/>
<path class="st3" d="M526.1,366c-2.7,16.7-5.4,33.3-8.1,50c1.3-9.6,2.4-19.3,3.8-28.9c1-7,2.2-14,3.3-21
	C525.4,366.1,525.8,366,526.1,366z"/>
<path class="st4" d="M516.1,429c-2,12.6-4.1,25.3-6.1,37.9C512,454.2,514,441.6,516.1,429z"/>
<path class="st5" d="M562,138.4c-2,12.3-4.1,24.6-6.1,36.9c1.3-9.5,2.6-19,3.9-28.5c0.4-2.8,0.8-5.6,1.2-8.4
	C561.4,138.4,561.7,138.4,562,138.4z"/>
<path class="st6" d="M554,188.2c-1.5,10.8-3.1,21.6-4.6,32.4c-0.2-0.6-0.3-1.1-0.5-1.7C550.6,208.7,552.3,198.4,554,188.2z"/>
<path class="st7" d="M526.1,366c-0.3,0-0.7,0-1,0c1.6-9,3.1-18,4.7-27C528.6,348,527.4,357,526.1,366z"/>
<path class="st8" d="M548.9,218.9c0.2,0.6,0.3,1.1,0.5,1.7c-1.4,8.2-2.9,16.4-4.3,24.6C546.3,236.4,547.6,227.6,548.9,218.9z"/>
<path class="st9" d="M541.1,269.2c-1.4,8.3-2.8,16.6-4.2,24.9C538.2,285.8,539.7,277.5,541.1,269.2z"/>
<path class="st10" d="M536,304.1c-1.3,8-2.7,16-4,24C533.3,320.1,534.7,312.1,536,304.1z"/>
<path class="st11" d="M562,138.4c-0.3,0-0.6,0-0.9,0c0.9-6.1,1.7-12.3,2.8-18.4c0.2-1.3,1.5-2.4,2.2-3.6
	C564.8,123.8,563.4,131.1,562,138.4z"/>
</svg>
