<?xml version="1.0" encoding="utf-8"?>
<!-- Generator: Adobe Illustrator 24.0.3, SVG Export Plug-In . SVG Version: 6.00 Build 0)  -->
<svg version="1.1" id="Layer_1" xmlns="http://www.w3.org/2000/svg" xmlns:xlink="http://www.w3.org/1999/xlink" x="0px" y="0px"
	 viewBox="0 0 1366 768" style="enable-background:new 0 0 1366 768;" xml:space="preserve">
<style type="text/css">
	.st0{fill:#22AC60;}
	.st1{fill:#FFFFFF;}
</style>
<path class="st0" d="M687,760c-2.7,0-5.3,0-8,0c-2.4-1.1-4.7-2.4-7.2-3.1c-55-15.3-109.9-30.6-164.9-45.9
	c-29.2-8.1-58.4-16.2-87.5-24.3c-5.5-1.5-6-2.2-6.5-7.9c-1.4-16.3-2.8-32.5-4.3-48.8c-1.5-17.3-3.1-34.5-4.6-51.8
	c-1.5-16.4-2.9-32.9-4.4-49.3c-1.5-17.1-3.1-34.2-4.6-51.3c-1.5-16.6-2.9-33.2-4.4-49.8c-1.5-17.1-3.1-34.2-4.6-51.3
	c-1.5-16.6-2.9-33.2-4.4-49.8c-1.5-16.9-3.1-33.8-4.6-50.8c-1.5-16.6-2.9-33.2-4.4-49.8c-1.5-17.3-3.1-34.5-4.6-51.8
	c-1.5-16.4-2.9-32.9-4.4-49.3c-1.5-17.1-3.1-34.2-4.6-51.3c-1.4-15.8-2.7-31.5-4.2-47.3c-0.2-1.7-1.2-3.2-1.8-4.9c0-4,0-8,0-12
	c220.7,0,441.3,0,662,0c0,4,0,8,0,12c-0.6,1.5-1.6,2.9-1.7,4.4c-1.5,15.9-2.9,31.8-4.3,47.8c-1.5,16.8-2.9,33.5-4.4,50.3
	s-3.1,33.5-4.6,50.2c-1.5,16.8-2.9,33.5-4.4,50.3c-1.8,20.4-3.8,40.8-5.6,61.2c-1.8,20.6-3.6,41.1-5.4,61.7
	c-2.2,24.2-4.4,48.4-6.6,72.6c-1.8,20.6-3.6,41.1-5.4,61.7c-1.8,20.6-3.8,41.1-5.6,61.7s-3.6,41.1-5.4,61.7
	c-2.2,24-4.4,48.1-6.6,72.1c-0.6,7.1-0.7,7.3-7.4,9.2c-84.6,23.4-169.3,46.9-253.9,70.3C691.5,757.9,689.3,759.1,687,760z
	 M682.8,530.2c-0.8-0.1-1.7-0.2-2.5-0.4c-28.3-7.6-56.5-15.3-84.8-22.9c-0.9-0.3-1.8-0.8-2.8-1.2c-2-21.8-4-43.5-6-65.2
	c-27.8,0-55.1,0-82.9,0c3.8,43.2,7.6,86.1,11.5,129.3c1.7,0.5,3.2,1,4.8,1.5c32,8.9,64.1,17.8,96.1,26.8
	c22.6,6.3,45.2,12.6,67.7,18.9c0,25.5-0.1,51-0.1,76.5c0,9.5,0,9.6,9.1,7.1c27.1-7.5,54.2-15,81.2-22.5
	c40.5-11.3,81-22.5,121.5-33.8c7.1-2,6.6-1.8,8.1-9.5c0.2-1,0.1-2,0.1-3c0.4-5.1,0.7-10.3,1.2-15.4c0.9-8.7,2-17.5,2.8-26.2
	c0.9-9.8,1.3-19.6,2.2-29.3c1.1-12.2,2.6-24.4,3.8-36.6c1.1-11.7,2-23.5,3-35.2c1-12.2,2-24.5,3.1-36.7c0.4-4.5,0.8-8.9,1.2-13.4
	c0.6-6.4,1.2-12.9,1.8-19.3c0.4-5.1,0.7-10.3,1.2-15.4c0.9-8.6,2-17.1,2.8-25.7c0.9-9.8,1.4-19.5,2.1-29.3c0.3-4.1,0.8-8.3,1.2-12.4
	c0.9-8.9,1.9-17.8,2.7-26.7c0.5-6,0.6-11.9,1.1-17.9c1.2-13.9,2.6-27.7,3.9-41.6c0.4-4.5,0.8-8.9,1.2-13.4
	c0.6-6.1,1.3-12.2,1.8-18.3c0.5-5.1,0.7-10.3,1.2-15.4c0.9-9.1,2-18.1,2.8-27.2c0.8-9.4,1.4-18.9,2.1-28.3c0.3-4.3,0.8-8.6,1.2-12.9
	c0.9-9.2,1.9-18.5,2.8-27.7c0.6-6.1,1.2-12.2,1.7-18.3c0.5-6.3,1-12.6,1.2-18.9c0.1-4.6-0.5-5-5.3-5c-0.5,0-1,0-1.5,0
	c-85.5,0-171,0-256.5,0c-1.2,0-2.3,0-3.5,0c-1.9,0.1-3.1,1.2-3.2,3.2c-0.1,1.3-0.1,2.7-0.1,4c0,23.2,0,46.3,0,69.5
	c0,1.9-0.2,3.9-0.4,6.5c-2.6,0-4.7,0-6.8,0c-64,0-128,0-192,0c-2.2,0-4.5,0.6-6.7,1c0,1.3,0,2.7,0.1,4c2.2,24.2,4.4,48.4,6.6,72.6
	c2.2,24.4,4.2,48.8,6.4,73.1c2.6,29.4,5.2,58.7,7.9,88c0.3,3.8,0.8,7.5,1.3,11.9c2.4,0,4.6,0,6.7,0c57,0,113.9,0,170.9,0
	c2,0,4,0.1,6,0.2c0,42,0,84,0,126C683.9,526.7,683.2,528.5,682.8,530.2z"/>
<path class="st1" d="M568.8,235.2c-0.2-1.1-0.4-2.2-0.8-3.9c105.5,0,210.5,0,316.2,0c2.4-27.5,4.8-54.5,7.3-82.2
	c-2.3-0.1-4.2-0.2-6.1-0.2c-64.3,0-128.6,0-192.9,0c-70.1,0-140.3,0.1-210.4,0.2c-1.3,0-2.7,0-4,0.1c2.2-0.3,4.5-1,6.7-1
	c64-0.1,128,0,192,0c2.1,0,4.2,0,6.8,0c0.1-2.6,0.4-4.5,0.4-6.5c0-23.2,0-46.3,0-69.5c0-1.3,0-2.7,0.1-4c0.1-1.9,1.2-3,3.2-3.2
	c1.2-0.1,2.3,0,3.5,0c85.5,0,171,0,256.5,0c0.5,0,1,0,1.5,0c4.8,0.1,5.4,0.4,5.3,5c-0.2,6.3-0.7,12.6-1.2,18.9
	c-0.5,6.1-1.1,12.2-1.7,18.3c-0.9,9.2-1.9,18.5-2.8,27.7c-0.4,4.3-0.9,8.6-1.2,12.9c-0.7,9.4-1.3,18.9-2.1,28.3
	c-0.8,9.1-1.9,18.1-2.8,27.2c-0.5,5.1-0.7,10.3-1.2,15.4c-0.5,6.1-1.2,12.2-1.8,18.3c-0.4,4.5-0.8,8.9-1.2,13.4
	c-1.3,13.9-2.7,27.7-3.9,41.6c-0.5,6-0.6,11.9-1.1,17.9c-0.8,8.9-1.8,17.8-2.7,26.7c-0.4,4.1-0.9,8.2-1.2,12.4
	c-0.7,9.8-1.3,19.5-2.1,29.3c-0.8,8.6-1.9,17.1-2.8,25.7c-0.5,5.1-0.7,10.3-1.2,15.4c-0.6,6.4-1.2,12.9-1.8,19.3
	c-0.4,4.5-0.8,8.9-1.2,13.4c-1,12.2-2,24.5-3.1,36.7c-1,11.7-1.9,23.5-3,35.2c-1.2,12.2-2.7,24.4-3.8,36.6
	c-0.9,9.8-1.3,19.5-2.2,29.3c-0.8,8.8-1.9,17.5-2.8,26.2c-0.5,5.1-0.8,10.3-1.2,15.4c-0.1,1,0.1,2-0.1,3c-1.5,7.6-1,7.5-8.1,9.5
	c-40.5,11.3-81,22.6-121.5,33.8c-27.1,7.5-54.1,15-81.2,22.5c-9,2.5-9.1,2.4-9.1-7.1c0-25.5,0.1-51,0.1-76.5c11.6-3,23.2-6,34.7-9.2
	c42.8-11.9,85.6-23.8,128.4-35.7c0.5-0.1,1-0.2,1.4-0.4c5.4-1.6,5.5-1.6,6-7c1.2-12.8,2.2-25.5,3.3-38.3c1.5-17.1,3.1-34.1,4.6-51.2
	c1.1-12.8,2.2-25.5,3.4-38.3c1.5-16.9,3.1-33.8,4.6-50.7c1.1-12.4,2.2-24.9,3.3-37.3c0.9-9.8,1.7-19.6,2.5-29.4c0.1-1,0-1.9,0-3.5
	c-2.4,0-4.5,0-6.6,0c-60,0-119.9,0-179.9,0c-2,0-4-0.1-6-0.1c0-26.6,0.1-53.3,0.1-79.9c0-1.1-0.3-2.2-0.6-3.8c-2,0-3.8,0-5.6,0
	c-34.3,0-68.6,0-102.9,0c-1,0-2,0.1-3,0C569.6,231.9,569.1,233.4,568.8,235.2z"/>
<path class="st1" d="M684,399c3.8-0.1,7.7-0.2,11.5-0.2c28,0,56,0,83.9,0c2,0,3.9,0,5.8,0c1.2,4.5-6,92.3-8.7,107
	c-1.7,0.6-3.5,1.3-5.4,1.8c-27,7.3-54,14.6-81,21.8c-2.3,0.6-4.8,0.5-7.2,0.7c0.4-1.7,1.1-3.5,1.1-5.2C684,483,684,441,684,399z"/>
<path class="st0" d="M568.8,235.2c0.3-1.7,0.8-3.3,3-3.1c1,0.1,2,0,3,0c34.3,0,68.6,0,102.9,0c1.8,0,3.6,0,5.6,0
	c0.3,1.6,0.6,2.7,0.6,3.8c0,26.6,0,53.3-0.1,79.9c-10.6,0-21.3,0.1-31.9,0.1c-23.5,0-46.9,0-70.4,0c-1.8,0-3.6,0-5.9,0
	C573.4,288.8,571.1,262,568.8,235.2z"/>
</svg>
