<?xml version="1.0" encoding="utf-8"?>
<!-- Generator: Adobe Illustrator 24.0.3, SVG Export Plug-In . SVG Version: 6.00 Build 0)  -->
<svg version="1.1" id="Layer_1" xmlns="http://www.w3.org/2000/svg" xmlns:xlink="http://www.w3.org/1999/xlink" x="0px" y="0px"
	 viewBox="0 0 1366 768" style="enable-background:new 0 0 1366 768;" xml:space="preserve">
<style type="text/css">
	.st0{fill:#22AC60;}
	.st1{fill:#FFFFFF;}
	.st2{fill:none;}
</style>
<path class="st0" d="M686,759.9c-2,0-4,0-6,0c-1.9-0.9-3.8-2-5.8-2.6c-73.9-20.5-147.7-41-221.6-61.4c-11.7-3.2-23.4-6.6-35.2-9.7
	c-2.8-0.7-4.2-1.9-4.4-5c-0.5-8-1.3-15.9-2-23.9c-1.4-16.4-2.9-32.8-4.4-49.2c-1.5-17.2-3.1-34.5-4.7-51.7
	c-1.5-16.4-2.9-32.8-4.4-49.2c-1.5-17.2-3.1-34.5-4.6-51.7c-1.5-16.4-2.9-32.8-4.4-49.2c-1.5-17.2-3.1-34.5-4.6-51.7
	c-1.5-16.4-2.9-32.8-4.4-49.2c-1.5-17.1-3.1-34.1-4.6-51.2c-1.5-16.6-2.9-33.1-4.4-49.7c-1.5-17.1-3.1-34.1-4.6-51.2
	c-1.2-12.9-2.3-25.9-3.4-38.8c-1.5-16.7-3-33.5-4.5-50.2c-1.1-12.8-2.2-25.5-3.4-38.3c-0.2-2.1-1.1-4.1-1.6-6.1c0-3,0-6,0-9
	c220.7,0,441.3,0,662,0c0,3,0,6,0,9c-0.6,2-1.4,4-1.6,6.1c-1.5,15.9-2.9,31.8-4.3,47.7c-1.5,16.7-2.9,33.5-4.4,50.2
	c-1.5,17.2-3.1,34.4-4.7,51.7c-1.5,16.4-2.9,32.8-4.4,49.2c-1.5,17.2-3.1,34.4-4.6,51.7c-1.5,16.4-2.9,32.8-4.4,49.2
	c-1.5,17.2-3.1,34.4-4.6,51.7c-1.5,16.4-2.9,32.8-4.4,49.2c-1.5,17.2-3.1,34.4-4.6,51.7c-1.5,16.4-2.9,32.8-4.4,49.2
	c-1.5,17.1-3.1,34.1-4.6,51.2c-1.5,16.6-2.9,33.1-4.4,49.7c-1.5,16.7-3.1,33.4-4.5,50.2c-0.6,6.5-0.4,6.5-6.9,8.3
	c-0.5,0.1-1,0.2-1.5,0.4c-85.4,23.6-170.8,47.3-256.2,70.9C689,758.4,687.5,759.3,686,759.9z M684,383.8c0,102.9,0,205.7,0,308.6
	c0,1.8-0.1,3.7,0,5.5c0.2,3.6,0.9,4.1,4.3,3.5c0.8-0.1,1.6-0.4,2.4-0.6c28.1-7.8,56.2-15.5,84.3-23.3c33.1-9.2,66.1-18.3,99.2-27.5
	c8.2-2.3,16.3-4.6,24.6-6.8c2.6-0.7,4.1-1.9,4.2-4.7c0.2-3.3,0.7-6.6,1-9.9c0.5-5.3,0.9-10.6,1.4-15.9c0.8-9.3,1.8-18.5,2.6-27.8
	c0.8-9.1,1.5-18.2,2.3-27.3s1.9-18.2,2.7-27.3c0.8-9.3,1.4-18.6,2.2-27.8c1.5-16.4,3.2-32.7,4.7-49.1c1.2-13.1,2.1-26.2,3.2-39.2
	c0.4-4.5,0.9-8.9,1.3-13.4c0.9-9.1,1.8-18.2,2.6-27.3c0.8-9.3,1.5-18.5,2.3-27.8c0.8-8.9,1.9-17.8,2.6-26.8
	c0.8-9.4,1.4-18.9,2.2-28.3c1.2-13.1,2.6-26.1,3.7-39.2c1.1-12.7,2.1-25.5,3.2-38.2c0.5-5.6,1.2-11.2,1.7-16.8
	c0.4-4.5,0.7-8.9,1.1-13.4c0.8-9.1,1.5-18.2,2.3-27.3c0.9-9.9,1.8-19.8,2.7-29.8c0.8-8.8,1.5-17.5,2.3-26.3
	c0.9-9.3,1.9-18.5,2.6-27.8c0.4-5.2-0.4-5.8-5.4-5.9c-1,0-2,0-3,0c-84.3,0-168.6,0-253,0c-8.5,0-8.5,0-8.5,8.4
	C684,177.4,684,280.6,684,383.8z M660.9,604.8c1.3-4.6,1.3-457.1,0.1-461.3c-5.5-1.2-180-0.9-184,0.5c2.5,27,5,54,7.6,81.7
	c31.5,0,62.5,0,93,0c0.5,0.9,0.8,1.2,0.9,1.5c0.1,0.6,0.3,1.3,0.3,2c0,91.4,0,182.7,0,274.1c0,0.8-0.2,1.6-0.3,2.5
	c0,0.1-0.2,0.3-0.3,0.4s-0.2,0.2-0.9,0.8c-14.5-2.1-29.4-4.3-44.7-6.6c-1-11.3-1.9-22-2.9-32.7c-1-10.9-2-21.8-3-32.4
	c-6.6-1.2-78.7-0.9-83,0.5c3.8,42.7,7.6,85.5,11.5,128.6C524.1,577.7,592.5,591.3,660.9,604.8z"/>
<path class="st1" d="M684,383.8c0-103.2,0-206.4,0-309.6c0-8.4,0-8.4,8.5-8.4c84.3,0,168.6,0,253,0c1,0,2,0,3,0
	c5,0.1,5.8,0.8,5.4,5.9c-0.7,9.3-1.7,18.5-2.6,27.8c-0.8,8.8-1.6,17.5-2.3,26.3c-0.9,9.9-1.8,19.8-2.7,29.8
	c-0.8,9.1-1.6,18.2-2.3,27.3c-0.4,4.5-0.7,8.9-1.1,13.4c-0.5,5.6-1.3,11.2-1.7,16.8c-1.1,12.7-2.1,25.5-3.2,38.2
	c-1.2,13.1-2.6,26.1-3.7,39.2c-0.8,9.4-1.4,18.9-2.2,28.3c-0.8,8.9-1.8,17.8-2.6,26.8c-0.8,9.3-1.5,18.5-2.3,27.8
	c-0.8,9.1-1.7,18.2-2.6,27.3c-0.4,4.5-1,8.9-1.3,13.4c-1.1,13.1-2,26.2-3.2,39.2c-1.5,16.4-3.2,32.7-4.7,49.1
	c-0.9,9.3-1.4,18.5-2.2,27.8c-0.8,9.1-1.8,18.2-2.7,27.3c-0.8,9.1-1.5,18.2-2.3,27.3c-0.8,9.3-1.7,18.5-2.6,27.8
	c-0.5,5.3-0.9,10.6-1.4,15.9c-0.3,3.3-0.8,6.6-1,9.9c-0.2,2.8-1.7,4.1-4.2,4.7c-8.2,2.2-16.4,4.6-24.6,6.8
	c-33.1,9.2-66.1,18.3-99.2,27.5c-28.1,7.8-56.2,15.6-84.3,23.3c-0.8,0.2-1.6,0.4-2.4,0.6c-3.4,0.6-4.1,0.1-4.3-3.5
	c-0.1-1.8,0-3.7,0-5.5C684,589.5,684,486.7,684,383.8z M819.1,393.2c0.3,1.6,0.5,2.2,0.5,2.9c-0.6,7.5-1.3,14.9-2,22.4
	c-1.5,16.4-3.1,32.8-4.6,49.2c-0.9,9.1-1.6,18.2-2.6,27.3c-0.6,5.4-0.8,5.4-6.4,6.4c-30.7,5.6-61.3,11.1-92,16.7
	c-4.8,0.9-5,1.1-5,5.7c0,25.6,0,51.3,0,76.9c0,1.2,0.4,2.5,0.6,4c2.1-0.4,3.7-0.6,5.3-1c27.5-6.2,54.9-12.4,82.4-18.7
	c29.1-6.6,58.2-13.2,87.2-19.8c4.4-1,4.8-1.6,5.3-6c0.4-4,0.7-8,1-11.9c2.3-25.5,4.6-51,6.9-76.5c2.4-26,4.7-52,7-78
	c2-21.9,4-43.7,5.9-65.6c0.4-4.3,0.9-8.6,1.1-12.9c0.1-3-0.4-3.5-3.4-3.7c-1.7-0.1-3.3-0.1-5-0.1c-34,0-68,0-102,0
	c-5.4,0-5.6-0.3-5.7-5.6c0-0.8,0-1.7,0-2.5c0-22.8,0-45.6,0-68.4c0-8.7-0.4-8.3,8.1-8.3c35.8,0,71.7,0,107.5,0c1.5,0,3,0.1,4.5,0
	c3.4-0.2,3.8-0.5,4.1-3.7c1.1-11.3,2-22.5,3-33.8c1.2-13.3,2.3-26.5,3.4-39.8c0.1-1.6,0-3.2,0-5.2c-2.5-0.1-4.6-0.3-6.8-0.3
	c-67.7,0-135.3,0-203,0c-8.1,0-7.7-0.2-7.7,7.6c0,78.2,0,156.4,0,234.7c0,8,0,8,7.9,8c32.5,0,65,0,97.5,0
	C814.5,393.2,816.7,393.2,819.1,393.2z"/>
<path class="st2" d="M660.9,604.8c-68.4-13.6-136.8-27.1-205.7-40.8c-3.8-43.1-7.7-85.9-11.5-128.6c4.2-1.4,76.3-1.7,83-0.5
	c1,10.7,2,21.6,3,32.4c1,10.7,1.9,21.5,2.9,32.7c15.3,2.2,30.2,4.4,44.7,6.6c0.7-0.5,0.8-0.6,0.9-0.8c0.1-0.1,0.3-0.3,0.3-0.4
	c0.1-0.8,0.3-1.6,0.3-2.5c0-91.4,0-182.7,0-274.1c0-0.7-0.1-1.3-0.3-2c-0.1-0.3-0.3-0.6-0.9-1.5c-30.5,0-61.5,0-93,0
	c-2.6-27.6-5.1-54.7-7.6-81.7c4.1-1.3,178.6-1.6,184-0.5C662.2,147.7,662.2,600.2,660.9,604.8z"/>
<path class="st2" d="M819.1,393.2c-2.5,0-4.6,0-6.7,0c-32.5,0-65,0-97.5,0c-7.9,0-7.9,0-7.9-8c0-78.2,0-156.4,0-234.7
	c0-7.9-0.4-7.6,7.7-7.6c67.7,0,135.3,0,203,0c2.1,0,4.2,0.2,6.8,0.3c0,2,0.1,3.6,0,5.2c-1.1,13.3-2.3,26.5-3.4,39.8
	c-1,11.3-2,22.5-3,33.8c-0.3,3.2-0.7,3.5-4.1,3.7c-1.5,0.1-3,0-4.5,0c-35.8,0-71.7,0-107.5,0c-8.4,0-8.1-0.4-8.1,8.3
	c0,22.8,0,45.6,0,68.4c0,0.8,0,1.7,0,2.5c0.1,5.3,0.3,5.6,5.7,5.6c34,0,68,0,102,0c1.7,0,3.3-0.1,5,0.1c3,0.2,3.5,0.7,3.4,3.7
	c-0.2,4.3-0.7,8.6-1.1,12.9c-2,21.9-4,43.7-5.9,65.6c-2.4,26-4.7,52-7,78c-2.3,25.5-4.6,51-6.9,76.5c-0.4,4-0.7,8-1,11.9
	c-0.4,4.4-0.9,5-5.3,6c-29.1,6.6-58.2,13.2-87.2,19.8c-27.5,6.2-54.9,12.5-82.4,18.7c-1.6,0.4-3.2,0.6-5.3,1c-0.2-1.5-0.6-2.8-0.6-4
	c0-25.6,0-51.3,0-76.9c0-4.7,0.2-4.8,5-5.7c30.6-5.6,61.3-11.2,92-16.7c5.6-1,5.8-0.9,6.4-6.4c1-9.1,1.8-18.2,2.6-27.3
	c1.5-16.4,3.1-32.8,4.6-49.2c0.7-7.5,1.4-14.9,2-22.4C819.7,395.4,819.4,394.8,819.1,393.2z"/>
</svg>
