<?xml version="1.0" encoding="utf-8"?>
<!-- Generator: Adobe Illustrator 24.0.3, SVG Export Plug-In . SVG Version: 6.00 Build 0)  -->
<svg version="1.1" id="Layer_1" xmlns="http://www.w3.org/2000/svg" xmlns:xlink="http://www.w3.org/1999/xlink" x="0px" y="0px"
	 viewBox="0 0 24 24" style="enable-background:new 0 0 24 24;" xml:space="preserve">
<style type="text/css">
	.st0{fill:#22AC60;}
</style>
<path class="st0" d="M22,3.2C22,2.5,21.5,2,20.8,2H3.2C2.5,2,2,2.5,2,3.2V15h20C22,15,22,3.2,22,3.2z M20,13H4V4h16V13z M22,16H2
	c-0.2,0.4-2,4.6-2,5c0,0.5,0.4,1,1,1h22c0.6,0,1-0.5,1-1C24,20.6,22.2,16.4,22,16z M9.8,21l0.5-1h3.5l0.5,1H9.8z"/>
</svg>
