<?xml version="1.0" encoding="utf-8"?>
<!-- Generator: Adobe Illustrator 24.0.3, SVG Export Plug-In . SVG Version: 6.00 Build 0)  -->
<svg version="1.1" id="Layer_1" xmlns="http://www.w3.org/2000/svg" xmlns:xlink="http://www.w3.org/1999/xlink" x="0px" y="0px"
	 viewBox="0 0 24 24" style="enable-background:new 0 0 24 24;" xml:space="preserve">
<style type="text/css">
	.st0{fill-rule:evenodd;clip-rule:evenodd;fill:#22AC60;}
</style>
<path class="st0" d="M23,17h1v2h-6.7l2.7,4h-2.6l-2.7-4H9.4l-2.7,4H4l2.7-4H0v-2h1V1h22V17z M21,3H3v14h18V3z M20,16h-2v-1h-4v1H4V4
	h16V16z M7.7,9.2l1,3.6L7.7,13L7,10.4l-0.8,0.5l0,0L6,10.2l1.5-1C7.5,9.2,7.7,9.2,7.7,9.2z M10.8,9.9l0.9-0.3l0.2,0.8L11,10.7l0.3,1
	l-0.9,0.2l-0.3-1l-0.9,0.3L9,10.4l0.9-0.3L9.7,9.3L10.6,9L10.8,9.9z M14.6,11.2l-0.9,0.2L13,8.8l-0.8,0.5l0,0l-0.2-0.7l1.5-1l0.2,0
	L14.6,11.2z M17.8,8.7L18,9.5l-2.5,0.7l-0.2-0.7L17.8,8.7z M17.5,7.7l0.2,0.7l-2.5,0.7l-0.2-0.7L17.5,7.7z"/>
</svg>
