<?xml version="1.0" encoding="utf-8"?>
<!-- Generator: Adobe Illustrator 24.0.3, SVG Export Plug-In . SVG Version: 6.00 Build 0)  -->
<svg version="1.1" id="Layer_1" xmlns="http://www.w3.org/2000/svg" xmlns:xlink="http://www.w3.org/1999/xlink" x="0px" y="0px"
	 viewBox="0 0 1366 768" style="enable-background:new 0 0 1366 768;" xml:space="preserve">
<style type="text/css">
	.st0{fill:#FFFFFF;}
	.st1{fill:#BABABA;}
</style>
<path class="st0" d="M1014,10.5c0,4,0,8,0,12c-2.2,1.8-1.7,4.5-1.9,6.9c-0.9,9.1-1.6,18.2-2.4,27.3c-1.2,13.8-2.5,27.5-3.7,41.2
	c-1.1,12.9-2.3,25.8-3.4,38.8c-1.2,12.9-2.4,25.8-3.6,38.8c-1.2,12.8-2.3,25.5-3.4,38.3c-1.2,13.3-2.4,26.5-3.6,39.8
	c-1.2,12.9-2.3,25.8-3.4,38.8c-1.2,13.4-2.4,26.8-3.6,40.3c-1.1,12.6-2.2,25.2-3.3,37.8c-1.2,13.6-2.5,27.2-3.7,40.7
	c-1.1,12.6-2.2,25.2-3.3,37.8c-1.2,13.6-2.4,27.2-3.7,40.7c-1.1,12.4-2.2,24.9-3.3,37.3c-1.2,13.1-2.4,26.2-3.6,39.3
	c-1.2,12.9-2.2,25.9-3.4,38.8c-1.6,17.6-3.2,35.1-4.7,52.7c-0.7,7.3-1.4,14.6-2,21.9c-0.2,3-1.6,5-4.7,5.6c-1,0.2-1.9,0.5-2.9,0.8
	c-85.1,23.6-170.3,47.1-255.4,70.7c-1.7,0.5-3.3,1.3-5,2c-2.7,0-5.3,0-8,0c-2.9-1.2-5.6-2.8-8.6-3.6c-75-20.8-150-41.6-225.1-62.3
	c-9-2.5-18-4.9-27-7.4c-2.9-0.8-5.1-2-5.4-5.5c-1.2-15.2-2.6-30.5-3.9-45.7c-1.1-12.8-2.2-25.5-3.4-38.3
	c-1.2-13.1-2.4-26.2-3.6-39.2c-1.1-12.6-2.2-25.2-3.3-37.8c-1.2-13.6-2.5-27.2-3.7-40.7c-1.1-12.6-2.2-25.2-3.3-37.8
	c-1.5-16.7-3.1-33.4-4.6-50.2c-1.5-16.7-2.9-33.5-4.4-50.2c-1.5-16.6-3.1-33.1-4.6-49.7c-1.5-16.7-2.9-33.5-4.4-50.2
	c-1.8-20.4-3.8-40.7-5.6-61.1c-2.2-24.3-4.2-48.7-6.3-73c-2.3-25.8-4.6-51.7-7-77.5c-0.2-2-1.2-3.9-1.8-5.9c0-4,0-8,0-12
	C572.7,10.5,793.3,10.5,1014,10.5z M683.8,584.9c0,31.6,0,63.2,0,94.9c0,5.2,0,10.3,0,15.5c0,1.9,0.1,3.7,2.5,4.5
	c71.4-19.7,143-39.4,214.7-59.5c0.4-3.4,0.9-6.3,1.2-9.2c0.4-4.8,0.7-9.6,1.2-14.3c0.5-5.2,1.3-10.5,1.8-15.7
	c0.5-5.1,0.7-10.2,1.1-15.3c0.3-4.3,0.7-8.6,1.1-12.8c0.6-5.7,1.3-11.5,1.9-17.2c0.5-4.8,0.7-9.6,1.1-14.3
	c0.6-7.4,1.3-14.8,1.9-22.2c0.1-0.7,0-1.3,0.1-2c0.6-6.2,1.3-12.5,1.9-18.7c0.4-4.8,0.7-9.6,1.1-14.3c0.3-3.8,0.7-7.6,1.1-11.3
	c0.6-5.2,1.3-10.5,1.8-15.7c0.5-5.4,0.6-10.9,1.1-16.3c0.6-7.6,1.3-15.1,1.9-22.7c0.1-0.7,0.1-1.3,0.1-2c0.6-5.2,1.4-10.5,1.8-15.7
	c0.5-5.1,0.7-10.2,1.1-15.3c0.3-4,0.7-7.9,1.1-11.8c0.6-5.7,1.4-11.5,1.9-17.2c0.5-5.6,0.6-11.2,1.1-16.8c0.3-3.6,0.7-7.2,1.1-10.8
	c0.6-6.6,1.3-13.1,1.9-19.7c0.1-1,0-2,0.1-3c0.6-6.2,1.4-12.5,1.9-18.7c0.5-5.3,0.5-10.6,1.1-15.8c0.9-8.5,2-17,2.9-25.6
	c0.8-7.9,1.3-15.8,2-23.7c0.6-7.2,1.4-14.5,2-21.7c0.8-9.9,1.4-19.8,2-29.7c0-0.5,0-1,0.1-1.5c0.6-5.2,1.4-10.5,1.9-15.7
	c0.5-5.4,0.7-10.9,1.1-16.3c0.3-4.1,0.7-8.2,1.1-12.3c0.6-5.7,1.4-11.5,1.9-17.2c0.5-5.3,0.6-10.6,1.1-15.8
	c0.4-4.6,1.4-9.1,1.8-13.7c0.3-3.6,0.9-7.2-1.1-11.3c-2,0-4.1,0-6.3,0c-56.7,0-113.3,0-170,0c-28,0-56,0-84,0
	c-2.1,0-4.1,0.3-6.7,0.5c0,27.8-0.1,55-0.1,82.3c-6.1-0.4-11.3,1.8-16.5,4.8c-43.3,25.2-86.8,50.2-130.2,75.3
	c-11.4,6.6-22.8,13.1-34.1,19.8c-7.4,4.4-12.1,10.7-12.1,19.9c0.1,65.4,0,130.8,0,196.2c0,8.6,3.6,14.9,11.1,19.2
	c55.3,31.8,110.5,63.7,165.7,95.7C672.8,583,677.9,585.2,683.8,584.9z"/>
<path class="st1" d="M683.8,584.9c7,0.6,12.3-3.5,17.9-6.7c18.5-10.6,36.9-21.3,55.3-32c15.3-8.8,30.5-17.7,45.7-26.6
	c14-8.1,28-16.1,41.9-24.2c6.5-3.7,13-7.4,19.4-11.4c7.3-4.5,11-11,11-19.9c-0.1-64.9-0.1-129.8-0.1-194.7c0-9.1-3.5-15.7-11.7-20.4
	c-24.1-13.7-48.1-27.9-72.1-41.8c-22.6-13.1-45.3-26-67.9-39c-8.9-5.1-17.8-10.4-26.7-15.7c-4-2.4-8.2-3.7-12.8-3.5
	c0-27.2,0.1-54.5,0.1-82.3c2.6-0.2,4.7-0.5,6.7-0.5c28,0,56,0,84,0c56.7,0,113.3,0,170,0c2.1,0,4.3,0,6.3,0c2,4,1.4,7.7,1.1,11.3
	c-0.4,4.6-1.3,9.1-1.8,13.7c-0.5,5.3-0.6,10.6-1.1,15.8c-0.5,5.7-1.3,11.5-1.9,17.2c-0.4,4.1-0.8,8.2-1.1,12.3
	c-0.4,5.4-0.6,10.9-1.1,16.3c-0.5,5.3-1.3,10.5-1.9,15.7c-0.1,0.5,0,1-0.1,1.5c-0.7,9.9-1.3,19.8-2,29.7c-0.6,7.2-1.3,14.5-2,21.7
	c-0.7,7.9-1.2,15.8-2,23.7c-0.9,8.5-2,17-2.9,25.6c-0.5,5.3-0.6,10.6-1.1,15.8c-0.5,6.2-1.3,12.5-1.9,18.7c-0.1,1,0,2-0.1,3
	c-0.6,6.6-1.2,13.1-1.9,19.7c-0.4,3.6-0.8,7.2-1.1,10.8c-0.4,5.6-0.6,11.2-1.1,16.8c-0.5,5.7-1.3,11.5-1.9,17.2
	c-0.4,3.9-0.8,7.9-1.1,11.8c-0.4,5.1-0.6,10.2-1.1,15.3c-0.5,5.3-1.2,10.5-1.8,15.7c-0.1,0.7-0.1,1.3-0.1,2
	c-0.7,7.6-1.4,15.1-1.9,22.7c-0.4,5.4-0.6,10.9-1.1,16.3c-0.5,5.3-1.2,10.5-1.8,15.7c-0.4,3.8-0.8,7.6-1.1,11.3
	c-0.4,4.8-0.7,9.6-1.1,14.3c-0.6,6.2-1.3,12.5-1.9,18.7c-0.1,0.7-0.1,1.3-0.1,2c-0.6,7.4-1.3,14.8-1.9,22.2
	c-0.4,4.8-0.6,9.6-1.1,14.3c-0.5,5.7-1.3,11.5-1.9,17.2c-0.4,4.3-0.8,8.6-1.1,12.8c-0.4,5.1-0.6,10.2-1.1,15.3
	c-0.5,5.2-1.3,10.5-1.8,15.7c-0.5,4.8-0.7,9.6-1.2,14.3c-0.3,2.9-0.8,5.8-1.2,9.2c-71.7,20.1-143.3,39.7-214.7,59.5
	c-2.4-0.8-2.5-2.6-2.5-4.5c0-5.2,0-10.3,0-15.5C683.8,648.1,683.8,616.5,683.8,584.9z"/>
<path class="st1" d="M695.6,357.9c10.9-6.3,21.9-12.6,33-18.9c3.6,1.7,7,3.3,11.2,5.3c0.1-2.5,0.3-4.2,0.3-5.9c0-12.3,0-24.6,0-36.9
	c0-1.9,0.4-3.8,0.6-6.4c2,0.6,3.5,0.7,4.7,1.3c4.9,2.5,9.7,5.2,14.5,7.8c2.1,1.1,3.2,2.8,3.1,5.2c0,0.8,0,1.7,0,2.5
	c0,26.5-0.1,52.9,0.1,79.4c0,4.7-1.3,7.6-5.7,9.8c-7.6,3.8-14.7,8.5-22.1,12.7c-2.1,1.2-4.4,2.2-6.8,3.4
	c-11.1-6.4-22-12.6-32.6-18.7C694.8,394.1,694.6,364.2,695.6,357.9z M728.9,391.2c3.9-2.4,7.4-4.6,10.8-6.7c0-4.7,0-8.9,0-13.4
	c-3.8-2.2-7.5-4.2-11-6.2c-3,1.6-5.6,2.8-7.9,4.4c-1.5,1.1-3.2,2.8-3.5,4.4c-0.6,2.7-0.4,5.6-0.1,8.4c0.2,1.3,1.2,2.8,2.3,3.5
	C722.4,387.6,725.5,389.2,728.9,391.2z"/>
<path class="st0" d="M671.8,377.5c0,5-0.1,10,0,15c0.1,3-1,5-3.6,6.5c-9.1,5.2-18.2,10.4-27.3,15.7c-2.4,1.4-4.6,1.4-7,0
	c-9.1-5.3-18.1-10.5-27.3-15.7c-2.4-1.4-3.6-3.2-3.6-6c0.1-10.5,0.1-21,0-31.5c0-2.9,1.2-4.6,3.6-6c9.1-5.2,18.2-10.4,27.3-15.7
	c2.4-1.4,4.6-1.4,7,0c9.2,5.4,18.4,10.7,27.7,16c2.4,1.3,3.2,3.2,3.1,5.7C671.7,366.8,671.8,372.2,671.8,377.5z M648.7,371.3
	c-3.7-2.2-7.4-4.3-11.3-6.6c-3.9,2.3-7.7,4.6-11.1,6.6c0,4.8,0,8.9,0,13.1c3.8,2.2,7.5,4.4,11.2,6.6c3.9-2.3,7.6-4.5,11.2-6.7
	C648.7,380.1,648.7,376.1,648.7,371.3z"/>
<path class="st0" d="M579.7,408.8c-2-0.9-3.4-1.3-4.7-2c-4.5-2.5-8.9-5.2-13.5-7.6c-2.9-1.6-4.3-3.7-4.2-7.2
	c0.2-5.8-0.1-11.6,0.1-17.5c0.1-3.1-1-5-3.8-6.3c-2.5-1.2-4.9-2.7-7-3.9c-0.9,0.1-1.2,0.1-1.5,0.3c-10.4,5-10.4,5-10.4,16.4
	c0,4-0.1,8,0,12c0,2.2-0.7,4-2.5,5.1c-5.9,3.4-11.9,6.7-17.8,10c-0.4,0.2-1,0-2,0c-0.2-1.2-0.7-2.4-0.7-3.6c0-14.5,0-28.9-0.1-43.4
	c0-2.9,1.2-4.6,3.6-6c9.3-5.2,18.5-10.5,27.7-15.8c2.3-1.3,4.3-1.2,6.5,0.1c9,5.3,18.1,10.5,27.2,15.7c2.4,1.4,3.6,3.1,3.6,6
	c-0.1,14.5,0,28.9-0.1,43.4C580.3,405.6,580,406.7,579.7,408.8z"/>
<path class="st1" d="M809.2,384.2c10.4,6.9,21.7,11.9,32.1,19.2c-1,1.1-1.5,2.1-2.3,2.5c-5,2.9-10.1,5.7-15.2,8.6
	c-2.5,1.5-4.9,1.7-7.5,0.2c-8.9-5.2-17.9-10.3-26.9-15.3c-2.7-1.5-3.6-3.5-3.6-6.5c0.1-10.3,0.1-20.6,0-30.9c0-2.8,0.9-4.7,3.4-6.1
	c9.2-5.3,18.4-10.7,27.6-16c2-1.2,4.1-1.1,6.2,0c8.9,5.1,17.8,10.3,26.8,15.4c2.9,1.7,4.5,3.8,4.1,7.3c-0.1,0.8-0.1,1.7,0,2.5
	c0.6,3.8-1.2,6.2-4.5,8c-4.1,2.3-8,4.8-12,7.2c-1.4,0.8-2.9,1.3-4.1,1.8c-2.9-1.4-2.5-3.6-2.3-5.5c0.4-4.2-1.1-7-5.1-8.6
	c-0.9-0.4-1.7-1-2.5-1.6c-2.1-1.4-4.3-1.9-6.4-0.1c-0.4,0.3-0.8,0.5-1.3,0.8c-7.3,4.1-8,5.5-6.9,13.8
	C809,381.9,809.1,382.9,809.2,384.2z"/>
<path class="st1" d="M825.8,373.5c0,2.3,0,4.6,0,6.7c-5.3,4.8-5.9,4.8-12.5,0.4c-0.1-1.9-0.2-4.2-0.3-6.2
	C818.5,369,819.6,368.9,825.8,373.5z"/>
</svg>
