<?xml version="1.0" encoding="utf-8"?>
<!-- Generator: Adobe Illustrator 24.0.3, SVG Export Plug-In . SVG Version: 6.00 Build 0)  -->
<svg version="1.1" id="Layer_1" xmlns="http://www.w3.org/2000/svg" xmlns:xlink="http://www.w3.org/1999/xlink" x="0px" y="0px"
	 viewBox="0 0 1366 768" style="enable-background:new 0 0 1366 768;" xml:space="preserve">
<style type="text/css">
	.st0{fill:#202020;}
	.st1{fill:#404040;}
</style>
<path class="st0" d="M687,760c-2.7,0-5.3,0-8,0c-2.4-1.1-4.7-2.4-7.2-3.1C612,740.2,552.2,723.6,492.5,707
	c-24.2-6.7-48.4-13.4-72.6-20.1c-6.1-1.7-6.5-2.2-7-8c-0.7-8.6-1.5-17.3-2.2-25.9c-1.2-13.8-2.5-27.5-3.7-41.3
	c-1.1-12.6-2.2-25.2-3.4-37.8c-1.2-13.3-2.4-26.5-3.6-39.8c-1.1-12.8-2.2-25.6-3.3-38.3c-1.2-13.6-2.5-27.2-3.7-40.8
	c-1.1-12.6-2.2-25.2-3.3-37.8c-1.2-13.1-2.4-26.2-3.6-39.3c-1.2-12.9-2.2-25.9-3.4-38.8c-1.2-13.8-2.5-27.5-3.7-41.3
	c-1.1-12.4-2.2-24.9-3.3-37.3c-1.2-13.8-2.5-27.5-3.7-41.3c-1.1-12.4-2.2-24.9-3.3-37.3c-1.2-13.6-2.5-27.2-3.7-40.8
	c-1.1-12.6-2.2-25.2-3.3-37.8c-1.2-13.4-2.5-26.9-3.7-40.3c-1.1-12.1-2.1-24.2-3.2-36.3c-0.2-1.9-1.1-3.7-1.7-5.5c0-3.7,0-7.3,0-11
	c220.7,0,441.3,0,662,0c0,3.7,0,7.3,0,11c-0.4,1-1.2,2-1.3,3c-0.7,5.5-1.2,10.9-1.7,16.4c-1.1,12.8-2.2,25.5-3.4,38.3
	c-1.2,13.8-2.4,27.5-3.7,41.3c-1.1,12.6-2.2,25.2-3.4,37.8c-1.2,13.4-2.4,26.9-3.6,40.3c-1.1,12.8-2.2,25.5-3.4,38.3
	c-1.2,13.3-2.4,26.5-3.6,39.8c-1.2,12.9-2.2,25.9-3.4,38.8c-1.2,13.3-2.4,26.5-3.6,39.8c-1.1,12.8-2.2,25.5-3.4,38.3
	c-1.2,13.4-2.4,26.9-3.6,40.3c-1.1,12.6-2.2,25.2-3.3,37.8c-1.2,13.6-2.5,27.2-3.7,40.8c-1.1,12.6-2.2,25.2-3.3,37.8
	c-1.2,13.1-2.4,26.2-3.6,39.3c-1.2,12.9-2.2,25.9-3.3,38.8c-1.5,16.7-3.1,33.5-4.6,50.2c-0.6,6.4-0.8,6.9-6.9,8.6
	c-46.2,12.8-92.3,25.5-138.5,38.3c-38.6,10.7-77.2,21.4-115.9,32.1C691.5,757.9,689.3,759.1,687,760z M681.9,204.1
	c-3.2-2.9-6.4-5.8-9.7-8.6c-13-11.5-26.8-21.8-42.4-29.4c-12.4-6-25.3-9.9-39.3-9.4c-13.1,0.5-24.3,5.2-33.4,14.6
	c-7.9,8.1-12.5,17.9-15.2,28.7c-4,16.3-3.5,32.7-1.5,49.1c1.3,10.9,4,21.6,6,32.3c0.2,1.1,0.2,2.2,0.4,3.6c-1.7,0.6-3.2,1.3-4.8,1.7
	c-18.1,5.3-35.5,12.2-51.5,22.3c-13.1,8.3-24.6,18.3-31.4,32.6c-7.2,15.1-6.7,30.3,1,45.1c6.3,12.1,16.1,21,27.3,28.6
	c14.5,9.7,30.3,16.5,46.7,22c4.5,1.5,9.1,3,13.7,4.5c-0.1,1.3-0.1,2.3-0.3,3.3c-1.4,6.8-2.9,13.6-4.2,20.5
	c-2.1,11.5-3.3,23.1-3.1,34.7c0.2,11.4,1.6,22.6,5.6,33.3c8.8,23.6,28.2,36.8,52.1,35.5c11.6-0.6,22.5-4.3,32.9-9.4
	c17.2-8.4,32.1-20.1,46.2-32.8c2.2-1.4,4.3-2.8,7-4.5c0,2.2,0.1,4.1,0,6c-0.2,6.1-0.8,12.2-0.8,18.3C683,596,683,645.1,683,694.3
	c0,1.2,0,2.3,0,3.5c0.2,4.3,1.9,5.7,6,4.7c6.7-1.8,13.4-3.6,20.1-5.5c14.2-3.9,28.4-7.9,42.6-11.8c13.2-3.7,26.5-7.4,39.7-11.1
	c16.6-4.6,33.2-9.1,49.8-13.7c13.9-3.8,27.8-7.7,41.6-11.5c5.7-1.6,11.5-3.3,17.2-5c2.7-0.8,4-2.3,4-5.4c0-4.5,0.6-8.9,1.1-13.4
	c0.5-5.3,1.3-10.5,1.8-15.7c0.5-5.4,0.7-10.9,1.1-16.4c0.3-4,0.7-7.9,1.1-11.9c0.6-6.1,1.3-12.2,1.8-18.2c0.5-5.1,0.6-10.2,1.1-15.4
	c0.9-8.9,2-17.7,2.8-26.6c0.6-6.1,0.7-12.2,1.1-18.4c0-0.7,0.2-1.3,0.3-2c0.6-5.1,1.2-10.2,1.7-15.3c0.5-4.9,0.7-9.9,1.1-14.9
	c0.3-3.8,0.7-7.6,1.1-11.4c0.6-5.4,1.4-10.8,1.8-16.2c0.5-5.9,0.6-11.9,1.1-17.9c0.8-8.9,2-17.7,2.9-26.6c0.7-7.2,1.4-14.5,2-21.7
	c0.7-7.7,1.3-15.5,2-23.2c0.6-7.2,1.4-14.5,2-21.7c0.8-9.6,1.4-19.1,2.1-28.7c0-0.7,0.1-1.3,0.1-2c0.6-5.9,1.3-11.8,1.8-17.7
	c0.5-4.9,0.7-9.9,1.1-14.9c0.3-3.6,0.6-7.3,1-10.9c0.6-5.2,1.4-10.5,1.9-15.7c0.5-6.1,0.7-12.2,1.1-18.4c0-0.5,0.1-1,0.1-1.5
	c0.6-5.2,1.3-10.5,1.8-15.7c0.5-5.1,0.7-10.2,1.1-15.4c0.3-4,0.7-7.9,1.1-11.9c0.6-5.7,1.3-11.5,1.8-17.2c0.5-5.6,0.7-11.2,1.1-16.9
	c0.3-3.8,0.6-7.6,1-11.4c0.6-5.2,1.4-10.5,1.9-15.7c0.5-5.8,0.7-11.6,1.1-17.4c0.3-3.8,0.7-7.6,1.1-11.4c0.6-5.4,1.5-10.8,1.8-16.2
	c0.4-8.9,0.2-8.9-8.6-8.9c-84.8,0-169.7,0-254.5,0c-1,0-2,0-3,0c-4.8,0.1-5.8,1.1-5.9,6c0,1,0,2,0,3c0.1,25.3,0,50.6,0.9,75.9
	c0.6,16.5,0.1,33,0.1,49.5c0,1.3,0.2,2.7-0.2,4C683.6,203,682.6,203.5,681.9,204.1z"/>
<path class="st1" d="M681.9,204.1c0.7-0.6,1.7-1.1,1.9-1.8c0.3-1.2,0.2-2.6,0.2-4c0-16.5,0.5-33-0.1-49.5
	c-0.9-25.3-0.8-50.6-0.9-75.9c0-1,0-2,0-3c0.1-4.8,1.1-5.8,5.9-6c1,0,2,0,3,0c84.8,0,169.7,0,254.5,0c8.8,0,9,0,8.6,8.9
	c-0.3,5.4-1.2,10.8-1.8,16.2c-0.4,3.8-0.8,7.6-1.1,11.4c-0.4,5.8-0.6,11.6-1.1,17.4c-0.5,5.3-1.3,10.5-1.9,15.7
	c-0.4,3.8-0.8,7.6-1,11.4c-0.4,5.6-0.6,11.2-1.1,16.9c-0.5,5.8-1.2,11.5-1.8,17.2c-0.4,3.9-0.8,7.9-1.1,11.9
	c-0.4,5.1-0.6,10.2-1.1,15.4c-0.5,5.3-1.2,10.5-1.8,15.7c-0.1,0.5-0.1,1-0.1,1.5c-0.3,6.1-0.6,12.3-1.1,18.4
	c-0.4,5.3-1.3,10.5-1.9,15.7c-0.4,3.6-0.7,7.2-1,10.9c-0.4,5-0.7,9.9-1.1,14.9c-0.5,5.9-1.2,11.8-1.8,17.7c-0.1,0.7-0.1,1.3-0.1,2
	c-0.7,9.6-1.3,19.2-2.1,28.7c-0.6,7.2-1.3,14.5-2,21.7c-0.7,7.7-1.3,15.5-2,23.2c-0.6,7.2-1.3,14.5-2,21.7
	c-0.9,8.9-2.1,17.7-2.9,26.6c-0.6,5.9-0.6,11.9-1.1,17.9c-0.5,5.4-1.2,10.8-1.8,16.2c-0.4,3.8-0.7,7.6-1.1,11.4
	c-0.4,5-0.7,9.9-1.1,14.9c-0.5,5.1-1.1,10.2-1.7,15.3c-0.1,0.7-0.2,1.3-0.3,2c-0.4,6.1-0.5,12.3-1.1,18.4c-0.8,8.9-2,17.7-2.8,26.6
	c-0.5,5.1-0.7,10.2-1.1,15.4c-0.5,6.1-1.2,12.2-1.8,18.2c-0.4,3.9-0.8,7.9-1.1,11.9c-0.4,5.4-0.6,10.9-1.1,16.4
	c-0.5,5.3-1.3,10.5-1.8,15.7c-0.5,4.4-1.1,8.9-1.1,13.4c0,3.1-1.3,4.6-4,5.4c-5.7,1.7-11.4,3.4-17.2,5c-13.9,3.9-27.8,7.7-41.6,11.5
	c-16.6,4.6-33.2,9.1-49.8,13.7c-13.2,3.7-26.5,7.4-39.7,11.1c-14.2,4-28.4,7.9-42.6,11.8c-6.7,1.9-13.4,3.7-20.1,5.5
	c-4.1,1.1-5.8-0.3-6-4.7c-0.1-1.2,0-2.3,0-3.5c0-49.2,0-98.3,0.1-147.5c0-6.1,0.5-12.2,0.8-18.3c0.1-1.9,0-3.8,0-6
	c-2.7,1.7-4.8,3.1-7,4.5c2.3-2.3,4.5-4.7,6.7-6.9c6.4,5.5,12.4,10.6,18.3,15.6c11.3,9.7,23.6,17.8,37.2,24
	c12.7,5.8,25.9,9.4,40.1,7.5c12-1.6,22.3-6.7,30.3-15.7c10.6-11.8,14.8-26.2,16.4-41.5c0.7-7.4,0.2-14.9,0.2-22.4
	c-0.1-11.9-2.3-23.5-4.7-35c-0.7-3.4-1.4-6.7-2-10c0.7-0.5,1.1-0.8,1.6-1c8.2-2.8,16.4-5.5,24.5-8.4c14.2-5.1,27.5-11.8,39.6-20.8
	c10-7.4,18.7-16.1,24.1-27.5c4.7-10.1,6.5-20.6,4-31.6c-2.6-11.3-8.4-20.8-16.5-29.2c-9.7-10.1-21.5-17.3-33.9-23.3
	c-12.6-6.1-25.7-11-39.2-14.9c-1.2-0.3-2.3-1.1-3.5-1.7c3.4-13.9,5.9-27.6,7.2-41.5c1.4-15.2,0.8-30.3-3.4-45
	c-3.2-11.1-8.8-20.7-17.9-28.2c-7.1-5.9-15.2-9.6-24.4-10.5c-14-1.3-27.5,1-40.4,6.9c-16.2,7.3-30.6,17.4-44,29.1
	c-3.6,3.2-7.2,6.5-10.7,9.8C684.9,206.3,683.3,206.5,681.9,204.1z"/>
<path class="st0" d="M668.5,222.3c-4.2,4.8-8.3,9.3-12.1,14.1c-7.9,10-15.8,20.1-23.4,30.4c-2,2.7-4.3,3.7-7.4,4.1
	c-13.2,1.7-26.3,3.5-39.5,5.4c-5.7,0.8-11.4,2-17.7,3.1c-1.8-9-3.6-17.6-5.1-26.2c-2.4-14-3.5-28.1-1.1-42.2
	c1.5-8.4,3.8-16.5,9.5-23.2c6.3-7.4,14.5-10.3,24-9.7c8.4,0.5,16.2,3.4,23.7,7c15.3,7.3,28.4,17.8,40.8,29.1
	C663.1,216.7,665.7,219.5,668.5,222.3z"/>
<path class="st1" d="M814,306c22.4,6.6,43.4,14.3,61.4,28.4c5.5,4.3,10.2,9.6,13.6,15.8c5.5,10.1,3.7,22.5-4.4,32.6
	c-7.6,9.4-17.4,15.9-27.9,21.3c-12.6,6.5-25.8,11.4-39.4,15.3c-3.5,1-3.9,0.9-5.2-2.5c-3.2-8.6-6-17.3-9.3-25.8
	c-3-7.7-6.3-15.4-9.7-23c-1.3-2.9-1.3-5.4,0-8.5c5.7-13.3,11.2-26.7,16.5-40.1C811.2,315.4,812.4,310.9,814,306z"/>
<path class="st1" d="M798.3,279.1c-6.5-1.1-12.5-2.2-18.6-3.2c-8.7-1.4-17.4-2.7-26.1-4c-3.9-0.6-7.9-0.8-11.9-1.2
	c-2.5-0.3-4.7-1.1-6.3-3.4c-10.7-15.3-22.1-29.9-34.7-43.7c-0.2-0.2-0.3-0.6-0.7-1.6c1.3-1.4,2.8-3.2,4.4-4.7
	c9.6-8.5,19.3-16.8,30.2-23.7c9.2-5.9,18.8-10.7,29.4-13.2c9.7-2.3,18.8-1.5,27.1,4.7c3.8,2.8,6.7,6.5,8.7,10.8
	c4,8.5,5.7,17.7,6.1,27.1c0.8,17.8-2.3,35.1-6.2,52.3C799.4,276.4,798.9,277.4,798.3,279.1z"/>
<path class="st0" d="M569.8,447.2c6.3,1.2,12.1,2.4,18,3.3c11.3,1.7,22.7,3.1,34.1,4.7c1.5,0.2,3,0.6,4.4,0.6
	c2.7-0.1,4.3,1.3,5.7,3.3c3.5,4.8,7,9.7,10.8,14.3c7.8,9.5,15.7,19,23.6,28.4c0.6,0.8,1.2,1.5,2.1,2.6c-3.3,3.1-6.5,6.2-9.8,9.1
	c-11.8,10.3-24.2,19.8-38.4,26.6c-8.3,4-16.9,6.9-26.3,6.7c-11.3-0.2-19.3-5.5-24.7-15c-3.9-6.9-5.6-14.6-6.4-22.4
	c-2-18.1,0.9-35.8,4.7-53.4C568.2,453.2,569,450.4,569.8,447.2z"/>
<path class="st0" d="M553.3,306.6c2.2,5.9,4.1,11.8,6.4,17.4c4.9,12.2,10,24.3,15.1,36.3c1,2.3,1.4,4.3,0.3,6.6
	c-7.8,16.5-14.2,33.6-20.1,51c-0.2,0.6-0.5,1.2-0.9,2.3c-4-1.2-8-2.2-11.9-3.5c-14.5-4.8-28.7-10.6-41.5-19.1
	c-7.8-5.1-15-11.1-19.9-19.2c-7-11.5-5.6-23.1,2.4-33.9c6.4-8.6,15.1-14.5,24.2-19.7c12.9-7.4,26.8-12.5,40.9-16.9
	C549.7,307.3,551.4,307.1,553.3,306.6z"/>
<path class="st1" d="M797.7,447.2c1.4,6.6,3.2,13,4.1,19.5c1.3,9.4,2.7,18.8,2.8,28.3c0.1,10.6-0.5,21.3-4.8,31.3
	c-3.6,8.2-8.9,14.9-17.8,17.7c-6.8,2.2-13.8,1.8-20.7,0.1c-9.5-2.3-18.1-6.7-26.3-11.8c-12.1-7.4-23-16.4-33.2-26.2
	c-0.6-0.6-1-1.2-1.7-2.1c3.8-4.5,7.6-8.9,11.2-13.5c8-10,15.9-20.1,23.7-30.3c2-2.7,4-4.3,7.6-4.7c12.1-1.3,24.1-3,36.1-4.7
	C784.7,450,790.9,448.5,797.7,447.2z"/>
<path class="st1" d="M683.9,290.1c12.8,0.4,25.6,0.7,38.4,1c2.3,0.1,3.6,1.3,4.7,3.1c6.4,10.3,13.1,20.4,19.2,30.9
	c7.2,12.5,13.8,25.4,20.8,38.4c-2.7,5.4-5.2,10.6-7.9,15.7c-9.5,17.6-19.5,34.8-30.5,51.5c-1.9,2.9-3.9,4.5-7.5,4.6
	c-7,0.1-13.9,0.6-20.9,0.9c-8.6,0.3-17.3,0.5-25.9,0.7c-1.8,0-3.6-0.4-5.4-0.6c4.9-0.2,9.8-0.3,14.6-0.5c1-6.4,0.8-28-0.3-31.2
	c-2.4-0.5-4.8-1-7.2-1.5c3,0,6,0.1,9,0.1c12.9,0.1,23.1-5.5,31.1-15.3c6.6-8,9.4-17.3,9-27.8s-4.3-19.4-11.3-27
	c-8-8.7-18.2-12.5-29.8-13.1C684,310,683.9,300.1,683.9,290.1z"/>
<path class="st0" d="M683.9,290.1c0,9.9,0,19.9,0,29.8c-7.2,0.4-14.1,1.7-20.5,5.3c-20.7,11.6-27.9,38.1-15.5,58.1
	c6.5,10.5,15.8,17.3,28.1,19.7c2.4,0.5,4.7,1,7.2,1.5c1,3.2,1.3,24.7,0.3,31.2c-4.8,0.2-9.7,0.3-14.6,0.5
	c-7.5-0.3-14.9-0.7-22.4-0.9c-2.9-0.1-4.8-1.2-6.5-3.7c-13.6-20.3-25.8-41.4-36.9-63.2c-1.3-2.6-2.1-4.9-0.6-7.9
	c11.6-23,24.3-45.3,38.6-66.7c0.5-0.7,1-1.3,1.7-2.2C656.4,290.6,670.1,289.6,683.9,290.1z"/>
<path class="st0" d="M575,300.9c13-3,25.7-4.8,39-6.7c-8.4,14.6-16.5,28.6-24.9,43.3C583.4,325.5,579.4,313.5,575,300.9z"/>
<path class="st1" d="M778.3,336.9c-8.1-14.1-16.1-28-24.5-42.7c13.1,1.6,25.4,3.5,37.7,6.3c0,1.2,0.2,2.2,0,3.1
	C789.7,310.6,780.9,333,778.3,336.9z"/>
<path class="st0" d="M589.1,390.1c8.2,14.2,16.1,27.7,24.3,41.8c-12.7-1.4-24.8-3.5-37.3-6.2C579.5,413.5,584.2,402.1,589.1,390.1z"
	/>
<path class="st1" d="M791.4,425.8c-12,2.8-23.8,4.8-36.9,6.2c8.2-14.2,15.8-27.4,23.5-40.9C780.9,395,788.9,415.8,791.4,425.8z"/>
<path class="st1" d="M684.1,458.9c7.9-0.3,15.8-0.6,24.4-1c-0.6,1.3-0.8,2-1.3,2.6c-6.8,8.3-13.6,16.7-20.5,24.9
	c-0.8,1-1.6,3.2-3.7,1.6c0.3-1.5,0.9-3.1,1-4.6C684.1,474.5,684.1,466.7,684.1,458.9z"/>
<path class="st0" d="M684.1,458.9c0,7.8,0,15.7-0.1,23.5c0,1.6-0.6,3.1-1,4.6c-7.4-8.9-14.9-17.7-22.2-26.6
	c-0.4-0.5-0.5-1.2-1.1-2.4C668.1,458.3,676.1,458.6,684.1,458.9z"/>
<path class="st1" d="M682.8,239.8c0.3-1.6,1.1-1.5,2-0.6c3.4,3.8,6.9,7.6,10.2,11.5c4.1,5,8.1,10.1,12.1,15.1
	c0.3,0.4,0.3,0.9,0.5,1.4c-0.5,0.3-0.9,0.7-1.3,0.7c-7.5,0-14.9-0.1-22.4-0.1c0-8,0.1-16,0-24C683.9,242.5,683.2,241.2,682.8,239.8z
	"/>
<path class="st0" d="M682.8,239.8c0.4,1.4,1.1,2.7,1.1,4.1c0.1,8,0,16,0,24c-7.7,0-15.5,0-23.3,0
	C661.9,263.7,672.5,250.3,682.8,239.8z"/>
</svg>
