<?xml version="1.0" encoding="utf-8"?>
<!-- Generator: Adobe Illustrator 24.0.3, SVG Export Plug-In . SVG Version: 6.00 Build 0)  -->
<svg version="1.1" id="Layer_1" xmlns="http://www.w3.org/2000/svg" xmlns:xlink="http://www.w3.org/1999/xlink" x="0px" y="0px"
	 viewBox="0 0 1366 768" style="enable-background:new 0 0 1366 768;" xml:space="preserve">
<style type="text/css">
	.st0{fill:#BABABA;}
	.st1{fill:#FFFFFF;}
</style>
<path class="st0" d="M881.4,167.8"/>
<path class="st1" d="M687,759.5c-2.7,0-5.3,0-8,0c-2.4-1.1-4.7-2.4-7.2-3.1c-72-20-143.9-39.9-215.9-59.8
	c-12.3-3.4-24.7-6.8-37-10.2c-5-1.4-5.6-2.1-6-7.2c-0.4-5-0.8-9.9-1.2-14.9c-1.2-13.2-2.4-26.5-3.6-39.7
	c-1.5-16.4-2.9-32.8-4.4-49.2c-1.5-16.6-3.1-33.1-4.6-49.7c-1.5-16.7-2.9-33.5-4.4-50.2c-1.5-16.7-3.1-33.4-4.6-50.2
	c-1.5-16.7-2.8-33.5-4.3-50.2c-2.2-24.2-4.5-48.3-6.6-72.5c-1.8-20.4-3.5-40.8-5.3-61.1c-2.2-24.2-4.5-48.3-6.6-72.5
	c-1.8-20.7-3.5-41.4-5.4-62.1c-2.3-25.8-4.6-51.7-7-77.5c-0.2-2-1.2-3.9-1.8-5.9c0-4,0-8,0-12c220.7,0,441.3,0,662,0c0,4,0,8,0,12
	c-0.6,1.6-1.6,3.2-1.8,4.9c-1.2,12.4-2.2,24.8-3.3,37.3c-1.1,12.6-2.2,25.2-3.3,37.8c-1.2,13.6-2.4,27.2-3.6,40.8
	c-1.1,12.4-2.3,24.8-3.4,37.3c-1.2,13.3-2.4,26.5-3.6,39.8c-1.1,12.8-2.2,25.5-3.4,38.3c-1.2,13.4-2.4,26.8-3.6,40.3
	c-1.1,12.8-2.2,25.5-3.4,38.3c-1.5,16.7-3.1,33.5-4.6,50.2c-1.2,12.9-2.2,25.9-3.4,38.8c-1.5,16.9-3.1,33.8-4.6,50.7
	c-1.2,12.9-2.2,25.9-3.4,38.8c-1.5,16.6-3.1,33.1-4.6,49.7c-1.5,16.9-2.9,33.8-4.4,50.7c-1.8,20.5-3.8,41.1-5.6,61.6
	c-0.6,6.1-0.8,6.6-6.7,8.2c-85.6,23.7-171.3,47.3-256.9,71C689.9,758,688.5,758.9,687,759.5z M683,496.6
	c-18.1,12.9-37.4,23.6-58.9,29.9c-20.8,6.1-41.9,7.3-63.2,3.2c-15.8-3-29.9-9.8-40.3-22.3c-18.9-22.6-24.8-48.1-14.9-76.4
	c7.1-20.1,20-36.2,36-50c1.4-1.2,2.7-2.4,4.1-3.5c-1.2-4.5-2.4-8.6-3.5-12.8c-1.1-4.2-2.3-8.4-3.4-12.9
	c-10.5,6.6-24.5,19.8-33.8,31.8c-22.4,29-31,61.4-23.9,97.5c5.2,26.4,19.2,46.8,42.9,60.2c23.1,13.1,48.1,17.2,74.2,15
	c19-1.7,37.4-6.6,55-13.7c10.1-4.1,19.8-9.3,29.7-14.1c0,2.5,0.1,5,0.1,7.5c0,52.9,0,105.9,0,158.8c0,6.1-0.3,7.2,7.6,6.7
	c0.7,0,1.3-0.2,2-0.3c6.4-1.8,12.8-3.6,19.2-5.4c17.2-4.8,34.3-9.5,51.5-14.2c14.1-3.9,28.2-7.8,42.3-11.7
	c19.9-5.5,39.8-11,59.6-16.5c11.5-3.2,23.1-6.5,34.6-9.7c2.1-0.6,3.8-1.5,4-3.8c0.8-7.1,1.5-14.2,2.1-21.3
	c0.5-5.1,0.7-10.2,1.2-15.4c0.3-3.8,0.7-7.6,1.1-11.4c0.6-5.4,1.3-10.8,1.8-16.3c0.5-5.6,0.7-11.2,1.1-16.9
	c0.3-3.6,0.7-7.3,1.1-10.9c0.6-5.3,1.3-10.5,1.7-15.8c0.5-5.9,0.7-11.9,1.1-17.9c0.3-4.5,0.7-8.9,1.2-13.4c0.5-4.8,1.3-9.5,1.7-14.3
	c0.5-5.1,0.7-10.2,1.1-15.4c0.3-4.1,0.8-8.2,1.2-12.4c0.6-5.8,1.2-11.5,1.7-17.3c0.5-5.6,0.7-11.2,1.1-16.9
	c0.3-4.5,0.8-8.9,1.3-13.3c0.5-4.9,1.1-9.9,1.6-14.8c0.5-4.9,0.7-9.9,1.2-14.9c0.9-9.6,2-19.1,2.8-28.7c0.8-8.9,1.3-17.8,2.1-26.8
	c0.9-9.9,2-19.8,2.9-29.7c0.8-9.1,1.4-18.2,2.1-27.3c0.4-4.5,0.8-8.9,1.2-13.4c0.6-5.9,1.2-11.9,1.7-17.8c0.5-5.4,0.7-10.9,1.2-16.4
	c0.6-6.4,1.3-12.8,1.9-19.3c0.4-4.6,0.7-9.3,1.2-13.9c0.6-5.8,1.3-11.5,1.8-17.3c0.5-5.6,0.6-11.3,1.1-16.9
	c0.9-10.7,2-21.4,2.9-32.1c0.4-4.6,0.7-9.2,1.2-13.9c0.5-5.6,1.2-11.2,1.8-16.8c0.6-5.8,1.1-11.5,1.8-17.3c0.9-7.6-0.6-9.1-7.7-9.1
	c-85.3,0.1-170.7,0.1-256,0.1c-7.7,0-8.1,0.5-8.1,8.3c0,31.8,0,63.6,0,95.4c-1.7,0.1-3.3,0.2-5,0.1c-11-0.4-21.5,1.9-31.8,5.7
	c-27.4,10.1-47.8,28.5-62.3,53.5c-11.5,19.8-17.7,41.5-21,64c-3.2,21.8-2.4,43.4,1.7,65c4.8,25.4,13.9,49.2,26.6,71.7
	c1.8,3.2,1.9,5.8,0.6,9.3c-7.4,18.6,6.1,38.9,26.1,39.4c16.1,0.4,29.8-12.5,30-28.4c0.2-16.5-12.8-29.6-29.3-29.5c-1.5,0-3,0-4.3,0
	c-0.4-0.4-0.8-0.5-0.9-0.8c-0.8-1.3-1.6-2.6-2.3-3.9c-21.3-38.2-28.7-79-23.2-122.3c3.1-23.7,11.3-45.4,25.4-64.8
	c15.9-21.9,38.4-31.4,64.5-34c1.6,0.2,3.2,0.4,5.2,0.7c0,2.2,0,4,0,5.8c0,32.4,0,64.8,0,97.2c0,1.3,0.2,2.7-0.1,4
	c-0.3,0.9-1.3,1.6-2,2.4c-1-1.3-2-2.6-3.1-3.9c-7.2-8.5-16.3-12.3-27.5-10.4c-13.5,2.3-23.3,13.2-24.1,26.8
	c-0.7,12.7,6.4,24.6,19.8,29.2c12.8,4.4,26.7-0.8,33.9-12.3c0.9-1.4,2-2.5,3-3.8C683,385.4,683,441,683,496.6z"/>
<path class="st0" d="M683,169.1c0-31.8,0-63.6,0-95.4c0-7.8,0.5-8.3,8.1-8.3c85.3,0,170.7,0,256-0.1c7.1,0,8.5,1.5,7.7,9.1
	c-0.7,5.8-1.2,11.5-1.8,17.3c-0.6,5.6-1.2,11.2-1.8,16.8c-0.5,4.6-0.8,9.2-1.2,13.9c-1,10.7-2,21.4-2.9,32.1
	c-0.5,5.6-0.6,11.3-1.1,16.9c-0.5,5.8-1.2,11.5-1.8,17.3c-0.4,4.6-0.7,9.2-1.2,13.9c-0.6,6.4-1.3,12.8-1.9,19.3
	c-0.5,5.4-0.7,10.9-1.2,16.4c-0.5,5.9-1.1,11.9-1.7,17.8c-0.4,4.5-0.9,8.9-1.2,13.4c-0.7,9.1-1.3,18.2-2.1,27.3
	c-0.9,9.9-2,19.8-2.9,29.7c-0.8,8.9-1.3,17.8-2.1,26.8c-0.9,9.6-1.9,19.1-2.8,28.7c-0.5,4.9-0.7,9.9-1.2,14.9
	c-0.5,4.9-1.1,9.9-1.6,14.8c-0.5,4.4-0.9,8.9-1.3,13.3c-0.4,5.6-0.7,11.3-1.1,16.9c-0.5,5.8-1.2,11.5-1.7,17.3
	c-0.4,4.1-0.8,8.2-1.2,12.4c-0.4,5.1-0.6,10.3-1.1,15.4c-0.5,4.8-1.2,9.5-1.7,14.3c-0.5,4.4-0.9,8.9-1.2,13.4
	c-0.4,6-0.6,11.9-1.1,17.9c-0.4,5.3-1.2,10.5-1.7,15.8c-0.4,3.6-0.8,7.2-1.1,10.9c-0.4,5.6-0.6,11.3-1.1,16.9
	c-0.5,5.4-1.2,10.9-1.8,16.3c-0.4,3.8-0.8,7.6-1.1,11.4c-0.4,5.1-0.7,10.3-1.2,15.4c-0.6,7.1-1.3,14.2-2.1,21.3
	c-0.2,2.3-1.9,3.2-4,3.8c-11.6,3.2-23.1,6.5-34.6,9.7c-19.9,5.5-39.8,11-59.6,16.5c-14.1,3.9-28.2,7.8-42.3,11.7
	c-17.2,4.7-34.3,9.5-51.5,14.2c-6.4,1.8-12.8,3.6-19.2,5.4c-0.6,0.2-1.3,0.3-2,0.3c-8,0.4-7.6-0.7-7.6-6.7c0-52.9,0-105.9,0-158.8
	c0-2.5,0-5-0.1-7.5c0.1-0.1,0.2-0.3,0.3-0.4c34.1-20,59.6-48,77.6-83c1.5-2.8,3.3-4.1,6.2-4.9c15.6-4.4,24.5-19,20.8-34.6
	c-3.5-15.1-17.1-23.6-30.7-22.3c-11.3,1-19.8,6.9-24.2,17.5c-4.2,10.2-3.1,20.1,3.6,29.2c0.8,1,1.5,2.1,2.2,3.2
	c-13.3,26.1-32.1,47-55.9,63.5c0-55.6,0-111.2,0-166.8c0.3-0.2,0.5-0.5,0.8-0.5c14.7-0.5,29.3,0.5,43.7,3.1
	c27.7,5,53.2,15.7,76.5,31.5c25.8,17.5,45,40.3,55.7,69.8c4.4,12.1,6.3,24.7,3.8,37.3c-5.4,27.9-21.6,47.4-48.1,57.8
	c-16.3,6.4-33.2,6.1-50.2,3.4c-9.6-1.5-18.8-4.1-27.8-7.9c-2.5-1-4.3-0.7-6.3,1c-3.4,3-7,5.7-10.5,8.5c-3.1,2.5-6.1,4.9-9.8,7.9
	c3.1,1.3,5.4,2.4,7.9,3.4c25.8,10.5,52.2,15.3,80,10.7c23.6-3.9,44.5-13.5,62.1-29.8c11.1-10.2,19.3-22.3,23.8-36.9
	c4.3-13.6,4.4-27.7,2.9-41.5c-2.3-21.5-10.5-41.1-23.2-58.7c-19.5-27-44.4-47.5-74.3-62.2c-22.8-11.2-47-17.7-72.1-20.5
	c-10.7-1.2-21.6-0.9-32.4-1.4c-1.6-0.1-3.1-0.5-4.7-0.8c0.7-0.8,1.7-1.5,2-2.4c0.4-1.2,0.1-2.6,0.1-4c0-32.4,0-64.8,0-97.2
	c0-1.8,0-3.6,0-5.8c-2-0.3-3.6-0.5-5.2-0.7c5.8-1.8,11.6-0.4,17.2,0.7c16.1,3,28.7,12,38.9,24.4c12.3,14.8,20.2,32,25,50.5
	c1.6,6.2,2.6,12.6,4,19.2c8.1,2.4,16.3,4.9,24.9,7.5c0-2.8,0.3-5.1,0-7.4c-0.8-5.9-1.6-11.8-2.8-17.7c-4.5-21.9-12.4-42.4-26.1-60.3
	C739.7,186.1,715.3,170.3,683,169.1z"/>
</svg>
